<?xml version="1.0" encoding="utf-8"?>
<!-- Generator: Adobe Illustrator 21.1.0, SVG Export Plug-In . SVG Version: 6.00 Build 0)  -->
<svg version="1.1" id="Layer_1" xmlns="http://www.w3.org/2000/svg" xmlns:xlink="http://www.w3.org/1999/xlink" x="0px" y="0px"
	 viewBox="0 0 199.1 17" style="enable-background:new 0 0 199.1 17;" xml:space="preserve">
<style type="text/css">
	.st0{fill:#D1A36D;}
</style>
<g transform="translate(0 0)">
	<path class="st0" d="M3.3,7.7v3.6c0,1.7,0.5,2.5,1.6,2.5c1.4,0,2.1-1.1,2.1-3.2l0-3c0-0.4,0.1-0.8,0.4-1.1c0.3-0.2,0.7-0.4,1.1-0.4
		c1,0,1.5,0.5,1.5,1.4c0,0,0,0.2,0,0.6c0,0.4,0,0.7,0,1.2v1.5c0,0.6,0,1.1,0,1.6c0,0.6,0,1.1,0.1,1.8c0,0.6,0,0.9,0,1
		c0,0.3-0.1,0.7-0.4,0.8c-0.3,0.2-0.7,0.3-1,0.3c-0.7,0-1.2-0.3-1.3-0.9c0,0,0-0.2,0-0.4c0-0.2,0-0.4-0.1-0.5
		c-0.5,1.2-1.7,1.9-3,1.9c-1.1,0.1-2.2-0.4-3-1.3c-0.7-1-1-2.2-1-3.4c0-0.4,0-1.1,0-2.1c0-1,0-1.7,0-2c0-1,0.5-1.5,1.7-1.5
		C2.9,6.2,3.3,6.7,3.3,7.7z"/>
	<path class="st0" d="M14.3,0.9c0.3-0.2,0.7-0.4,1.1-0.4c0.4,0,0.8,0.1,1.2,0.4C16.9,1.2,17,1.6,17,2c-0.1,3.1-0.1,6.5-0.1,10.3
		c0,0.3,0,0.8,0,1.3s0,1,0,1.3c0,0.4-0.1,0.7-0.3,1c-0.3,0.2-0.7,0.4-1.1,0.4c-1.1,0.1-1.7-0.6-1.7-2c-0.1-2.1,0-6.3,0-12.4
		C13.9,1.5,14,1.2,14.3,0.9z"/>
	<path class="st0" d="M19.8,7.5c0-0.3,0.1-0.6,0.3-0.9c0.2-0.2,0.5-0.4,0.8-0.4h0.9l0-1.3c0-1.1,0.6-1.7,1.6-1.7
		c0.8,0,1.2,0.4,1.2,1.2c0,0.2,0,0.8,0,1.8l1.6,0c0.8,0,1.2,0.4,1.2,1.3c0,0.3-0.1,0.6-0.3,0.9c-0.2,0.2-0.5,0.4-0.8,0.4h-1.7v3.3
		c0,1.1,0.3,1.6,0.9,1.6c0.2,0,0.4,0,0.5-0.1c0.1,0,0.3-0.1,0.4-0.1c0.3,0,0.6,0.1,0.7,0.4c0.2,0.2,0.3,0.5,0.3,0.8
		c0.1,0.5-0.2,0.9-0.5,1.2c-0.6,0.3-1.2,0.4-1.8,0.4c-2.2,0-3.4-1.3-3.4-4c0-0.4,0-1,0-1.8s0-1.4,0-1.8h-1
		C20.2,8.8,19.8,8.4,19.8,7.5z"/>
	<path class="st0" d="M30.9,5.1c-0.3-0.3-0.4-0.8-0.3-1.2c0.1-0.4,0.3-0.7,0.6-0.9c0.3-0.2,0.6-0.3,1-0.3c0.4,0,0.8,0.1,1.1,0.4
		c0.3,0.3,0.4,0.7,0.4,1c0,0.4-0.1,0.8-0.5,1.1c-0.3,0.2-0.8,0.4-1.2,0.4C31.6,5.6,31.2,5.5,30.9,5.1z"/>
	<path class="st0" d="M31,6.5c0.3-0.2,0.6-0.3,1-0.3c1,0,1.5,0.5,1.5,1.4c0,0.5,0,1.4,0,2.4c0,1.1,0,1.9,0,2.4l0,2.6
		c0,0.4-0.1,0.8-0.4,1c-0.3,0.2-0.7,0.4-1.1,0.4c-0.4,0-0.7-0.1-1.1-0.3c-0.3-0.2-0.4-0.5-0.4-0.9V7.4C30.5,7,30.7,6.7,31,6.5z"/>
	<path class="st0" d="M37.1,9.1c0-0.5,0-0.9,0-1.1c0-0.3,0-0.4,0-0.5c0-0.9,0.5-1.3,1.5-1.3c0.6-0.1,1.2,0.4,1.3,1l0.1,0.6
		c0.3-0.5,0.6-0.9,1.1-1.1c0.5-0.3,1.1-0.4,1.6-0.4c0.6,0,1.3,0.1,1.8,0.5c0.5,0.3,0.9,0.7,1.1,1.3c0.3-0.5,0.8-0.9,1.3-1.2
		c0.5-0.3,1.1-0.5,1.8-0.5c1.1-0.1,2.1,0.3,2.9,1.1c0.7,0.9,1,2,0.9,3.1l0,2.3c0,0.8,0,1.7-0.1,2.6c0,0.7-0.5,1.1-1.5,1.1
		c-0.4,0-0.8-0.1-1.1-0.3c-0.3-0.2-0.4-0.5-0.4-0.9c0-0.4,0-1,0-2c0-1,0-1.8,0-2.4c0-1.4-0.5-2.1-1.4-2.1c-0.5,0-0.9,0.2-1.3,0.5
		c-0.3,0.4-0.5,0.9-0.5,1.4c0,0.6,0,1.4,0,2.4c0,0.9,0,1.7,0,2.2c0,0.4-0.1,0.7-0.4,1c-0.3,0.2-0.7,0.4-1.1,0.3
		c-0.9,0-1.4-0.4-1.4-1.2c0-2.6,0-4.2,0-4.6c0-0.5-0.1-1-0.4-1.4c-0.2-0.4-0.7-0.6-1.1-0.6c-1.3,0-1.9,0.9-1.9,2.7v3.8
		c0,0.4-0.1,0.7-0.4,0.9c-0.3,0.2-0.7,0.3-1.1,0.3c-0.4,0-0.7-0.1-1-0.3c-0.3-0.2-0.5-0.6-0.4-1c0-0.3,0-0.7,0-1.3l0-2.9
		C37.1,10.1,37.1,9.5,37.1,9.1z"/>
	<path class="st0" d="M58.7,13.3c0.4,0.3,0.9,0.5,1.5,0.5c0.6,0,1.3-0.2,1.8-0.5c0.3-0.2,0.6-0.3,1-0.3c0.3,0,0.7,0.2,0.9,0.4
		c0.2,0.3,0.4,0.6,0.4,1c0,0.5-0.3,0.9-0.7,1.1c-1.1,0.6-2.3,0.9-3.5,0.8c-1.3,0-2.6-0.5-3.5-1.4c-0.9-0.9-1.5-2.1-1.5-3.4
		c0-1.4,0.5-2.8,1.5-3.9c0.9-1,2.2-1.6,3.6-1.6c1.2,0,2.3,0.4,3.2,1.2c0.8,0.7,1.3,1.7,1.3,2.8c0,0.5-0.1,1-0.3,1.4
		c-0.4,0.3-0.9,0.5-1.4,0.4C62,12,60.3,12,58,12C58,12.6,58.3,13,58.7,13.3z M58.6,9C58.3,9.3,58,9.7,58,10.2c1.2,0,2.4,0,3.5-0.1
		c0.2,0,0.3,0,0.3-0.1c0-0.4-0.2-0.8-0.5-1.1c-0.3-0.3-0.8-0.4-1.2-0.4C59.5,8.4,59,8.6,58.6,9z"/>
	<path class="st0" d="M77.5,12.6c0,0.6,0,1.4,0.1,2.5c0,0.8-0.5,1.2-1.5,1.2c-0.3,0-0.6-0.1-0.8-0.4c-0.2-0.3-0.4-0.7-0.5-1.1
		c-0.6,1-1.7,1.6-2.9,1.6c-1.3,0.1-2.6-0.5-3.5-1.4c-0.9-0.9-1.4-2.2-1.3-3.5c-0.1-1.4,0.5-2.8,1.4-3.9c0.9-1,2.3-1.5,3.6-1.5
		c1.1-0.1,2.1,0.5,2.7,1.3c0-0.2,0.1-0.5,0.2-0.7c0.2-0.4,0.7-0.7,1.1-0.6c0.7-0.1,1.3,0.4,1.4,1.1c0,0.1,0,0.2,0,0.3l0,1.7
		L77.5,12.6z M70.7,13.2c0.4,0.4,1,0.7,1.5,0.7c0.7,0,1.3-0.2,1.7-0.7c0.9-1.1,0.9-2.7,0-3.8c-0.4-0.4-1-0.7-1.6-0.7
		c-0.6,0-1.2,0.3-1.7,0.7c-0.4,0.6-0.7,1.3-0.6,2C70,12.1,70.3,12.7,70.7,13.2L70.7,13.2z"/>
	<path class="st0" d="M81.8,0.9c0.3-0.2,0.7-0.4,1.1-0.4c0.4,0,0.8,0.1,1.2,0.4c0.3,0.3,0.4,0.7,0.4,1.1c-0.1,3.1-0.1,6.5-0.1,10.3
		c0,0.3,0,0.8,0,1.3s0,1,0,1.3c0,0.4-0.1,0.7-0.3,1c-0.3,0.2-0.7,0.4-1.1,0.4c-1.1,0.1-1.7-0.6-1.7-2c-0.1-2.1,0-6.3,0-12.4
		C81.3,1.5,81.5,1.2,81.8,0.9z"/>
</g>
<path class="st0" d="M94.6,16.3l1.8-13.5h1.8c1.1,0,2.1,0,3.2,0.1c0.5,0.1,1.1,0.2,1.6,0.5c1,0.5,1.8,1.3,2.3,2.2
	c0.6,1.1,0.9,2.2,0.8,3.4c0,1.2-0.2,2.3-0.7,3.4c-0.4,1-1.1,1.9-1.9,2.5c-0.7,0.5-1.4,0.8-2.2,1c-1.4,0.3-2.7,0.4-4.1,0.3L94.6,16.3
	z M96.4,14.9h0.9c1,0,1.9,0,2.9-0.1c0.5-0.1,1-0.2,1.4-0.4c0.9-0.4,1.7-1.1,2.2-2c0.5-1,0.8-2.1,0.8-3.2c0-0.9-0.2-1.8-0.6-2.7
	c-0.4-0.7-1-1.3-1.7-1.7c-0.4-0.2-0.8-0.3-1.3-0.4c-0.7-0.1-1.4-0.1-2.2-0.1h-0.9L96.4,14.9z"/>
<path class="st0" d="M108.8,16.3l1.8-13.5h1.7l-1.8,13.5H108.8z"/>
<path class="st0" d="M114.7,16.3l1.8-13.5h2.2c0.8,0,1.7,0,2.5,0.2c0.5,0.1,0.9,0.3,1.3,0.6c0.4,0.3,0.7,0.7,0.9,1.2
	c0.2,0.5,0.3,1,0.3,1.5c0,1-0.4,2-1.1,2.7c-0.8,0.7-1.9,1-3,1l4.1,6.2h-1.9l-4-6.2h-0.7l-0.8,6.2H114.7z M117.3,8.9h1.1
	c0.5,0,1,0,1.5-0.1c0.3,0,0.6-0.1,0.9-0.3c0.4-0.2,0.7-0.5,0.9-0.8c0.2-0.4,0.3-0.9,0.3-1.3c0.1-0.6-0.2-1.2-0.7-1.6
	c-0.9-0.4-1.8-0.6-2.7-0.5h-0.7L117.3,8.9z"/>
<path class="st0" d="M133.4,14.9l-0.2,1.5H126l1.8-13.5h7l-0.2,1.5h-5.4l-0.5,4h5.4l-0.2,1.5h-5.4l-0.7,5.1L133.4,14.9z"/>
<path class="st0" d="M148,5.7c-0.6-0.5-1.2-1-1.9-1.3c-0.6-0.3-1.3-0.4-2-0.4c-0.7,0-1.4,0.1-2.1,0.4c-0.6,0.3-1.2,0.7-1.7,1.2
	c-0.6,0.6-1,1.3-1.3,2c-0.3,0.8-0.4,1.6-0.4,2.4c-0.1,1.4,0.4,2.8,1.3,3.8c1,1,2.3,1.5,3.6,1.4c0.6,0,1.2-0.1,1.8-0.3
	c0.7-0.3,1.3-0.6,1.9-1l-0.4,1.9c-0.5,0.3-1.1,0.5-1.7,0.6c-0.6,0.1-1.2,0.2-1.9,0.2c-1.7,0.1-3.4-0.6-4.6-1.8
	c-1.2-1.3-1.9-3-1.8-4.8c0-1,0.2-2.1,0.6-3.1c0.4-0.9,0.9-1.8,1.7-2.5c0.6-0.6,1.4-1.1,2.2-1.5c0.9-0.3,1.8-0.5,2.7-0.5
	c0.8,0,1.6,0.1,2.3,0.4c0.7,0.3,1.4,0.6,2,1.1L148,5.7z"/>
<path class="st0" d="M152.5,16.3l1.6-12h-3.4l0.2-1.5h8.5l-0.2,1.5h-3.4l-1.6,12H152.5z"/>
<path class="st0" d="M168.4,2.6c1.8-0.1,3.6,0.6,4.9,1.8c1.3,1.3,1.9,3,1.8,4.8c0,1-0.2,2-0.6,3c-0.4,0.9-1,1.8-1.7,2.5
	c-0.7,0.7-1.5,1.2-2.4,1.5c-1,0.4-2,0.5-3,0.5c-3.4,0.2-6.4-2.4-6.6-5.9c0-0.2,0-0.5,0-0.7c0-1.1,0.2-2.1,0.6-3.1
	c0.4-0.9,0.9-1.8,1.7-2.5c0.7-0.7,1.5-1.2,2.4-1.5C166.4,2.7,167.4,2.5,168.4,2.6z M173.5,9.1c0.1-1.4-0.5-2.7-1.4-3.7
	c-1-1-2.4-1.5-3.8-1.4c-0.8,0-1.5,0.1-2.2,0.4c-0.7,0.3-1.3,0.7-1.8,1.2c-1.2,1.2-1.9,2.8-1.9,4.5c-0.2,2.7,1.9,5,4.5,5.1
	c0.2,0,0.3,0,0.5,0c0.8,0,1.5-0.1,2.3-0.4c0.7-0.3,1.3-0.7,1.9-1.2c0.6-0.6,1-1.3,1.3-2C173.3,10.8,173.5,10,173.5,9.1z"/>
<path class="st0" d="M177.7,16.3l1.8-13.5h2.2c0.8,0,1.7,0,2.5,0.2c0.5,0.1,0.9,0.3,1.3,0.6c0.4,0.3,0.7,0.7,0.9,1.2
	c0.2,0.5,0.3,1,0.3,1.5c0,1-0.4,2-1.1,2.7c-0.8,0.7-1.9,1-3,1l4.1,6.3h-1.9l-4-6.2h-0.7l-0.8,6.2H177.7z M180.3,8.9h1.1
	c0.5,0,1,0,1.5-0.1c0.3,0,0.6-0.1,0.9-0.3c0.4-0.2,0.7-0.5,0.9-0.8c0.2-0.4,0.3-0.9,0.3-1.3c0.1-0.6-0.2-1.2-0.7-1.6
	c-0.9-0.4-1.8-0.6-2.7-0.5h-0.7L180.3,8.9z"/>
<path class="st0" d="M191.4,16.3l0.8-5.9l-3.6-7.6h1.7l2.8,6.1l3.9-6.1h1.8l-5,7.6l-0.8,5.8H191.4z"/>
</svg>
